<?xml version="1.0" standalone="no"?>
<!DOCTYPE svg PUBLIC "-//W3C//DTD SVG 20010904//EN"
 "http://www.w3.org/TR/2001/REC-SVG-20010904/DTD/svg10.dtd">
<svg version="1.0" xmlns="http://www.w3.org/2000/svg"
 width="75px" height="75px" viewBox="0 0 300.000000 295.000000"
 preserveAspectRatio="xMidYMid meet">

<g transform="translate(0.000000,295.000000) scale(0.100000,-0.100000)"
fill="#000000" stroke="none">
<path d="M1115 2942 c14 -3 4 -9 -35 -21 -30 -10 -58 -13 -61 -9 -7 10 -102
-24 -160 -56 -21 -13 -37 -25 -34 -28 3 -2 -5 -4 -17 -4 -13 1 -23 -4 -23 -11
0 -6 -4 -15 -9 -20 -5 -5 -6 -2 -1 6 5 9 3 12 -6 9 -8 -3 -13 -11 -11 -17 1
-7 -2 -10 -7 -6 -14 8 -73 -23 -66 -35 3 -5 0 -12 -6 -16 -8 -5 -9 -3 -4 6 5
8 3 11 -6 8 -8 -3 -14 -10 -14 -16 0 -5 -4 -14 -9 -19 -5 -5 -6 -3 -2 5 11 18
-9 15 -25 -5 -12 -15 -12 -16 1 -8 13 8 13 7 1 -8 -15 -19 -26 -23 -15 -6 4 7
1 10 -7 7 -8 -3 -13 -10 -12 -16 1 -5 -5 -16 -15 -24 -15 -12 -16 -11 -3 5 7
9 10 17 5 17 -13 0 -194 -170 -194 -181 0 -6 5 -7 12 -3 11 7 -93 -120 -115
-141 -16 -15 12 23 62 85 25 30 35 46 22 35 -42 -36 -184 -235 -168 -235 3 0
17 20 31 44 15 25 31 48 37 51 5 4 -6 -17 -24 -47 -102 -159 -175 -351 -213
-558 -12 -66 -13 -69 -9 -20 2 30 6 71 9 90 3 19 -1 11 -8 -17 -21 -80 -5
-487 24 -603 50 -204 123 -373 225 -521 29 -43 52 -79 50 -79 -8 0 -82 106
-115 163 -17 31 -34 57 -37 57 -3 0 10 -26 28 -58 35 -62 135 -202 145 -202 4
0 0 8 -7 18 -11 14 -10 13 9 -2 23 -20 30 -32 12 -21 -32 20 2 -22 83 -103 84
-84 120 -112 101 -80 -4 7 2 4 14 -6 26 -23 29 -34 4 -15 -14 11 -13 10 2 -9
19 -22 43 -31 31 -12 -10 16 1 11 16 -7 12 -15 12 -16 -1 -8 -9 5 -8 0 4 -13
23 -26 45 -30 25 -4 -13 15 -12 16 3 3 10 -7 15 -17 13 -22 -7 -10 32 -32 45
-24 5 3 12 0 16 -6 5 -8 3 -9 -6 -4 -9 5 -11 4 -6 -4 12 -18 106 -62 118 -55
7 5 8 2 3 -6 -6 -10 -4 -12 9 -7 10 4 15 3 11 -3 -4 -6 19 -22 50 -35 64 -29
77 -31 49 -10 -12 9 0 7 36 -6 58 -22 83 -37 40 -24 -17 5 -22 4 -15 -3 12
-13 135 -45 143 -38 3 3 -3 6 -13 6 -10 0 -16 2 -13 5 2 3 45 -3 94 -14 55
-11 80 -20 64 -22 -14 -3 90 -4 230 -4 140 0 244 1 230 4 -15 2 10 11 65 22
49 10 91 16 94 14 2 -3 -2 -5 -9 -5 -7 0 -11 -3 -8 -6 4 -3 38 4 77 16 71 21
95 35 44 25 -16 -3 -21 -2 -13 1 64 27 80 32 74 23 -10 -17 30 -2 129 48 48
24 85 48 82 53 -3 5 0 7 8 4 7 -2 25 5 38 16 13 12 18 18 10 14 -9 -4 -12 -3
-7 4 4 6 13 9 20 6 8 -3 17 0 22 7 5 8 3 10 -7 4 -8 -5 -11 -4 -6 1 5 5 16 9
25 9 9 0 17 5 17 12 0 6 4 15 9 20 5 5 6 3 2 -4 -12 -22 10 -14 30 9 19 22 19
23 -1 8 -20 -15 -20 -14 -1 8 20 23 32 30 21 12 -13 -20 11 -9 43 21 42 39 42
52 0 13 -24 -21 -22 -17 7 14 37 40 61 59 35 27 -8 -9 -8 -15 -2 -15 13 0 131
130 199 220 98 131 192 321 233 473 12 43 20 81 17 83 -2 2 -14 -33 -26 -78
-36 -136 -156 -388 -208 -438 -8 -8 1 10 20 40 96 153 169 335 205 510 16 76
20 88 24 60 2 -19 3 93 2 250 -2 276 -3 288 -28 380 -48 171 -145 364 -253
505 -78 102 -271 292 -237 233 4 -7 -2 -4 -14 6 -26 23 -29 34 -4 15 9 -7 6
-1 -7 14 -25 27 -48 37 -35 15 5 -9 2 -9 -9 1 -19 15 -23 26 -5 15 7 -5 8 -3
4 5 -5 7 -14 10 -22 7 -7 -3 -16 0 -20 6 -5 7 -2 8 7 3 12 -8 12 -6 0 8 -16
20 -36 23 -25 5 4 -8 3 -10 -2 -5 -5 5 -9 14 -9 20 0 5 -6 12 -14 15 -9 3 -11
0 -6 -9 5 -8 4 -11 -1 -6 -5 5 -9 13 -9 19 0 6 -36 30 -80 54 -81 44 -115 57
-79 29 18 -14 17 -15 -8 -4 -15 7 -26 17 -25 22 1 6 -25 21 -58 33 -66 25 -88
29 -65 13 12 -9 12 -10 -3 -5 -11 3 -30 9 -44 12 -19 5 -22 9 -11 16 8 6 1 7
-22 3 -24 -4 -31 -3 -21 4 10 6 -123 9 -390 9 -222 -1 -395 -3 -384 -6z m533
-43 c55 -6 124 -17 153 -24 46 -12 48 -14 14 -10 l-40 4 40 -13 c22 -7 56 -16
75 -20 l35 -6 -35 15 -35 15 35 -6 c56 -10 141 -45 134 -55 -3 -5 9 -15 28
-21 18 -6 71 -31 116 -55 46 -24 88 -40 93 -37 5 3 8 0 7 -7 -2 -6 3 -14 11
-17 9 -3 11 0 6 8 -5 9 -4 11 4 6 6 -4 9 -11 6 -16 -3 -5 8 -18 24 -29 31 -23
46 -27 36 -11 -10 16 1 11 16 -7 12 -15 12 -16 -1 -8 -13 8 -13 7 -1 -8 14
-18 36 -24 26 -7 -11 18 1 11 21 -12 19 -22 19 -23 -1 -8 -15 11 -14 7 4 -13
25 -28 48 -37 35 -14 -4 6 21 -15 55 -48 33 -33 61 -62 61 -66 0 -4 -25 18
-56 49 -49 49 -47 46 14 -23 130 -149 182 -232 290 -465 l12 -25 -6 25 c-10
41 -89 201 -133 268 -22 34 -38 62 -36 62 11 0 99 -146 135 -223 90 -196 131
-384 131 -601 0 -156 -10 -237 -46 -371 -65 -242 -177 -436 -358 -620 -60 -60
-106 -104 -102 -97 9 18 -10 15 -26 -5 -10 -11 -10 -14 -1 -9 19 12 14 1 -10
-20 -19 -15 -20 -16 -9 -1 7 9 9 17 3 17 -13 0 -33 -25 -26 -32 3 -3 0 -9 -7
-14 -8 -4 -10 -3 -5 4 4 7 5 12 2 12 -8 0 -96 -61 -96 -66 0 -3 5 -2 12 2 7 4
8 3 4 -5 -4 -6 -11 -9 -16 -6 -13 8 -132 -54 -125 -64 3 -5 -3 -7 -13 -4 -10
2 -29 -7 -45 -21 -16 -14 -33 -26 -40 -26 -7 1 -1 8 13 16 18 11 19 13 5 9
-105 -33 -145 -47 -145 -51 0 -2 12 -2 28 1 26 5 26 5 4 -5 -13 -5 -36 -7 -50
-4 -19 4 -23 3 -14 -4 16 -11 -44 -28 -128 -36 -34 -3 -42 -2 -20 2 19 4 -59
7 -175 7 -115 0 -235 3 -265 7 -42 5 -48 5 -25 -3 17 -5 77 -12 135 -16 58 -3
111 -9 117 -12 21 -11 -126 -1 -230 15 -107 17 -167 34 -164 47 1 5 -29 19
-68 32 -38 12 -79 26 -90 30 l-20 8 20 -17 c19 -16 19 -16 -7 -5 -15 7 -25 17
-21 22 4 6 0 8 -11 4 -10 -4 -15 -3 -11 3 8 12 -53 43 -71 36 -10 -4 -12 -2
-8 6 5 8 2 9 -9 5 -10 -4 -16 -2 -14 5 1 6 -4 13 -12 16 -9 3 -11 0 -6 -8 5
-9 4 -11 -4 -6 -6 4 -9 11 -6 15 2 5 -13 20 -35 35 -44 29 -55 32 -44 13 4 -7
3 -9 -2 -4 -5 5 -9 14 -9 19 0 6 -6 13 -14 16 -9 3 -11 0 -5 -9 7 -12 5 -12
-9 0 -20 16 -23 25 -4 15 6 -4 3 2 -7 14 -21 24 -46 31 -26 7 22 -26 4 -16
-21 12 -18 21 -19 24 -4 13 11 -8 4 3 -14 23 -40 42 -67 51 -30 9 13 -15 -4 0
-39 33 -34 33 -62 61 -62 64 0 2 9 -4 20 -14 11 -10 20 -14 20 -9 0 6 -17 26
-37 45 -21 18 -29 24 -19 12 27 -32 15 -29 -15 4 -13 14 -18 23 -11 19 21 -12
14 1 -38 72 -27 38 -74 115 -105 173 -30 57 -55 101 -55 96 0 -17 82 -169 134
-246 30 -45 49 -77 41 -71 -21 18 -107 155 -149 238 -45 90 -98 247 -123 362
-13 64 -18 130 -18 265 1 191 11 266 62 430 27 88 121 285 154 325 14 18 13
12 -6 -20 -71 -119 -166 -358 -165 -411 1 -7 16 33 34 91 37 118 78 213 131
301 20 32 34 63 30 68 -3 5 0 13 6 17 8 5 9 3 4 -6 -6 -9 -4 -11 4 -6 7 5 10
14 7 21 -5 13 81 123 125 160 13 11 0 -6 -28 -38 -29 -32 -62 -72 -73 -90 -16
-24 -13 -22 12 8 18 22 72 80 121 130 94 97 116 126 40 55 l-48 -45 44 47 c24
25 49 44 56 42 6 -3 18 3 26 13 13 16 12 17 -3 4 -26 -19 -22 -8 4 15 12 10
18 13 13 5 -5 -9 -3 -12 6 -9 8 3 14 10 14 16 0 5 4 14 9 19 5 5 6 3 2 -4 -4
-7 -3 -13 3 -13 10 0 26 19 26 32 0 3 4 10 9 15 5 5 6 2 1 -6 -5 -9 -3 -12 6
-9 8 3 14 10 14 15 0 6 4 15 9 20 5 5 6 3 2 -4 -10 -18 4 -16 42 7 36 22 43
36 10 20 -21 -10 -22 -10 -5 4 11 8 26 12 35 9 10 -4 13 -2 8 5 -5 8 -1 10 10
5 12 -4 15 -3 10 5 -5 8 -1 10 10 5 12 -4 15 -3 10 5 -4 7 -2 10 7 7 7 -3 34
4 60 15 50 22 65 36 21 19 -15 -5 -29 -8 -31 -5 -8 8 58 25 74 19 10 -4 14 -2
10 4 -4 6 0 14 9 17 8 3 12 2 9 -4 -10 -17 7 -11 22 8 8 9 12 11 8 5 -9 -19 6
-16 22 5 8 9 11 11 7 3 -5 -11 -1 -13 17 -8 13 3 48 11 77 18 30 6 51 13 49
15 -2 3 -26 0 -52 -6 -26 -6 -50 -9 -52 -6 -5 5 61 20 157 35 133 22 236 25
368 10z"/>
<path d="M990 2125 l0 -25 223 -2 222 -2 -225 -6 -225 -6 223 -2 222 -2 0
-150 0 -150 -212 -2 -213 -2 215 -6 215 -6 -217 -2 -218 -2 0 -25 0 -25 218
-2 217 -2 -220 -6 -220 -6 218 -2 217 -2 0 -145 0 -145 -217 -2 -218 -2 220
-6 220 -6 -222 -2 c-216 -2 -223 -3 -223 -22 0 -19 7 -20 255 -20 l255 0 0
405 0 405 -255 0 -255 0 0 -25z"/>
<path d="M1520 1745 l0 -405 255 0 c248 0 255 1 255 20 0 19 -7 20 -225 20
l-225 0 0 165 0 165 223 2 222 2 -225 6 -225 6 223 2 222 2 0 25 0 25 -222 2
-223 2 225 6 225 6 -222 2 -223 2 0 140 0 140 228 2 227 2 -230 6 -230 6 228
2 227 2 0 25 0 25 -255 0 -255 0 0 -405z"/>
<path d="M1160 1128 c-11 -18 -20 -37 -20 -43 1 -5 10 6 21 25 27 47 20 27
-42 -122 l-53 -127 -53 127 c-29 70 -53 132 -53 137 1 6 23 -42 50 -105 27
-63 50 -110 50 -103 0 6 -20 57 -44 114 -38 88 -48 103 -69 106 -14 2 -29 -1
-32 -7 -7 -11 114 -314 122 -306 2 1 -24 68 -57 147 -33 79 -60 149 -60 154 1
12 107 -236 123 -287 14 -44 32 -49 41 -13 3 13 33 88 66 166 41 97 57 145 49
150 -8 5 -7 8 2 12 10 4 9 6 -4 6 -9 1 -26 -14 -37 -31z"/>
<path d="M1325 1150 c-29 -12 -82 -70 -94 -103 -15 -39 -14 -101 2 -140 8 -18
33 -49 56 -69 38 -35 46 -38 101 -38 55 0 63 3 101 37 53 48 69 81 69 143 0
62 -16 95 -69 143 -37 33 -47 37 -94 36 -28 0 -61 -4 -72 -9z m0 -60 c-4 -7 3
-8 22 -3 15 4 35 7 43 7 8 0 28 -3 43 -7 22 -6 27 -5 21 5 -3 7 6 1 21 -14 24
-22 29 -38 33 -87 4 -49 0 -66 -17 -93 -11 -18 -21 -28 -21 -21 0 6 5 15 10
18 6 3 10 11 10 18 0 6 -8 0 -17 -13 -10 -14 -18 -28 -18 -32 0 -3 -4 -10 -9
-15 -5 -4 -7 -3 -3 3 4 6 -13 10 -48 10 -38 -1 -59 4 -76 19 l-24 19 23 -24
c17 -19 32 -25 66 -25 24 0 42 -4 39 -9 -12 -19 -86 3 -117 33 -29 29 -31 37
-31 100 0 60 3 73 24 95 25 27 37 34 26 16z"/>
<path d="M1809 1151 c10 -6 10 -10 1 -13 -9 -3 6 -49 48 -148 33 -80 61 -154
63 -164 5 -26 28 -32 35 -9 3 10 33 85 67 166 47 115 58 150 48 157 -11 6 -11
9 0 13 10 4 9 6 -3 6 -11 1 -18 -6 -18 -16 0 -21 -102 -273 -110 -273 -7 0
-111 261 -110 278 0 6 -8 12 -17 12 -14 0 -15 -2 -4 -9z"/>
<path d="M700 980 l0 -160 100 0 c82 0 100 3 100 15 0 12 -16 15 -77 17 l-78
2 80 6 80 6 -77 2 -78 2 0 40 0 40 78 2 77 2 -80 6 -80 6 78 2 c61 2 77 5 77
17 0 12 -16 15 -77 17 l-78 2 80 6 80 6 -77 2 -78 2 0 35 0 35 78 2 77 2 -80
6 -80 6 78 2 c61 2 77 5 77 17 0 12 -18 15 -100 15 l-100 0 0 -160z"/>
<path d="M1600 980 l0 -160 90 0 c73 0 90 3 90 15 0 12 -15 15 -67 17 l-68 2
70 6 70 6 -67 2 -68 2 -2 133 -2 132 -6 -145 -6 -145 -2 148 c-2 123 -4 147
-17 147 -13 0 -15 -24 -15 -160z"/>
<path d="M2120 980 l0 -160 100 0 c82 0 100 3 100 15 0 12 -16 15 -77 17 l-78
2 80 6 80 6 -77 2 -78 2 0 40 0 40 73 2 72 2 -75 6 -75 6 78 2 c61 2 77 5 77
17 0 12 -16 15 -77 17 l-78 2 75 6 75 6 -72 2 -73 2 0 35 0 35 78 2 77 2 -80
6 -80 6 78 2 c61 2 77 5 77 17 0 12 -18 15 -100 15 l-100 0 0 -160z"/>
</g>
</svg>
