<?xml version="1.0" standalone="no"?>
<!DOCTYPE svg PUBLIC "-//W3C//DTD SVG 20010904//EN"
 "http://www.w3.org/TR/2001/REC-SVG-20010904/DTD/svg10.dtd">
<svg version="1.0" xmlns="http://www.w3.org/2000/svg"
 width="75px" height="75px" viewBox="0 0 299.000000 300.000000"
 preserveAspectRatio="xMidYMid meet">

<g transform="translate(0.000000,300.000000) scale(0.100000,-0.100000)"
fill="#000000" stroke="none">
<path d="M1285 2989 c29 -6 29 -7 4 -8 -15 0 -42 -3 -60 -6 -29 -4 -30 -3 -9
4 35 12 4 13 -50 0 -96 -21 -123 -31 -112 -38 7 -4 -9 -14 -38 -23 -28 -9 -47
-12 -44 -6 15 23 -92 -24 -114 -51 -8 -9 -11 -10 -7 -3 5 10 -1 10 -27 -1 -18
-8 -32 -19 -31 -25 2 -6 -3 -9 -10 -7 -16 6 -93 -39 -90 -53 2 -6 -3 -9 -11
-6 -8 3 -17 0 -22 -7 -5 -8 -3 -10 7 -4 8 5 11 4 6 -1 -5 -5 -16 -9 -25 -9 -9
0 -17 -5 -17 -12 0 -6 -4 -15 -9 -20 -5 -5 -6 -3 -2 5 11 18 -9 15 -25 -5 -12
-15 -12 -16 1 -8 13 8 13 7 1 -8 -15 -18 -26 -23 -16 -7 3 6 2 10 -4 10 -19 0
-248 -234 -303 -310 -58 -80 -148 -228 -148 -244 0 -6 23 30 51 79 71 124 148
225 247 325 l85 85 -80 -86 c-198 -212 -319 -427 -383 -684 -36 -140 -50 -291
-47 -480 1 -82 4 -134 6 -115 3 28 7 15 23 -60 59 -292 185 -531 396 -755
l105 -110 -110 110 c-121 123 -215 254 -288 405 -25 52 -43 84 -39 70 12 -48
106 -216 169 -305 74 -104 262 -298 281 -291 7 3 18 -3 26 -12 12 -16 11 -16
-7 -2 -20 15 -20 14 -1 -8 19 -22 43 -31 31 -12 -10 16 1 11 16 -7 12 -15 12
-16 -1 -8 -13 8 -13 7 -1 -8 16 -20 36 -23 25 -4 -4 7 -3 9 2 4 5 -5 9 -14 9
-20 0 -7 10 -13 23 -13 13 -1 29 -7 35 -14 10 -10 7 -10 -13 -1 l-25 12 25
-21 c24 -20 193 -110 207 -110 4 0 -2 7 -13 15 -18 14 -17 15 8 4 15 -7 25
-16 22 -20 -5 -9 16 -19 66 -33 20 -6 22 -5 10 4 -13 10 -12 11 3 6 11 -3 30
-9 44 -12 19 -5 22 -9 11 -16 -8 -6 -4 -7 12 -3 14 3 37 1 50 -5 24 -10 24
-10 -5 -5 -21 4 -25 2 -15 -4 23 -14 94 -26 87 -14 -4 5 23 3 61 -5 66 -14
548 -26 492 -12 -19 5 -8 9 45 18 39 7 81 14 95 17 14 2 7 -2 -15 -9 -48 -17
-27 -20 29 -5 30 8 36 13 25 21 -10 7 -7 8 12 4 28 -6 116 20 165 49 27 15 20
15 -23 -2 -39 -14 -4 7 42 26 32 14 43 16 31 6 -25 -19 -13 -19 25 0 17 9 27
21 23 27 -4 7 -3 8 4 4 12 -7 106 36 117 55 5 8 1 8 -16 -1 -23 -10 -23 -10
-5 4 10 9 23 13 27 10 12 -7 51 15 44 25 -2 5 3 15 13 22 15 13 16 12 3 -3
-20 -26 2 -22 25 4 12 13 13 18 4 13 -13 -8 -13 -7 -1 8 15 18 26 23 16 7 -13
-21 13 -9 36 17 l24 28 -25 -20 -25 -20 24 28 c24 27 38 36 26 17 -3 -6 -2
-10 3 -10 28 0 259 268 312 361 34 61 17 45 -25 -22 -44 -72 -163 -216 -226
-274 -24 -22 -11 -5 29 38 202 217 348 492 394 742 11 59 14 65 18 40 4 -16 6
101 6 260 0 160 -2 279 -6 266 -4 -19 -9 -8 -19 45 -32 164 -108 349 -206 501
-38 60 -46 77 -24 53 l31 -35 -23 35 c-52 81 -232 280 -253 280 -5 0 -1 -9 9
-20 10 -11 16 -20 13 -20 -2 0 -17 14 -34 32 -16 18 -20 26 -9 18 15 -11 14
-8 -4 13 -23 26 -49 38 -36 17 10 -16 -1 -11 -16 7 -12 14 -12 16 0 8 10 -6
12 -4 7 4 -5 7 -14 10 -22 7 -7 -3 -16 0 -20 6 -4 7 -3 8 4 4 19 -11 14 5 -5
20 -26 19 -38 17 -22 -3 13 -16 12 -17 -3 -5 -10 8 -16 19 -15 24 1 6 -4 13
-12 16 -9 3 -11 0 -6 -8 5 -9 4 -11 -4 -6 -6 4 -9 11 -6 16 6 10 -92 63 -103
56 -5 -3 -14 0 -22 6 -12 8 -12 9 3 4 30 -10 18 3 -23 24 -47 24 -61 26 -34 5
18 -14 17 -15 -8 -4 -15 7 -26 16 -25 21 3 14 -121 60 -143 53 -9 -3 -28 -1
-41 5 -23 10 -22 10 6 6 l30 -5 -30 14 c-16 8 -39 14 -50 14 l-20 0 20 -10
c17 -8 17 -9 -5 -5 -163 31 -233 38 -409 40 -108 1 -182 -1 -166 -5z m172
-1226 c-1 -219 -3 -316 -4 -215 l-3 182 -218 2 -217 3 220 5 220 5 -220 5
-220 6 218 2 217 2 0 190 0 190 -220 0 c-140 0 -220 4 -220 10 0 6 82 10 225
10 l224 0 -2 -397z m103 -10 c0 -245 -4 -383 -10 -383 -6 0 -10 144 -10 398 0
257 4 392 10 382 6 -9 9 -171 10 -397z"/>
</g>
</svg>
